<svg id="Layer_1" data-name="Layer 1" xmlns="http://www.w3.org/2000/svg" viewBox="0 0 5001 1418"><defs><style>.cls-1{fill:#303030;}.cls-1,.cls-15,.cls-16{stroke:#231f20;}.cls-1,.cls-15,.cls-16,.cls-22{stroke-miterlimit:10;}.cls-16,.cls-2{fill:#fff;}.cls-3{fill:#4865a8;}.cls-4{fill:#a99a5c;}.cls-5{fill:#fff6c8;}.cls-6{fill:#f58e82;}.cls-7{fill:#010101;}.cls-8{fill:#bdbec0;}.cls-9{fill:#5a93c2;}.cls-10{fill:#c7d0ea;}.cls-11{fill:#e5d073;}.cls-12{fill:#1c75bc;}.cls-13{fill:#6e6f72;}.cls-14{fill:#f8a695;}.cls-15{fill:#6f8ebe;}.cls-17{fill:#ffe697;}.cls-18{fill:#ec008c;}.cls-19{fill:#c8aa2d;}.cls-20{fill:#94a3aa;}.cls-21{fill:#2d4658;}.cls-22{fill:none;stroke:#fff;stroke-width:7px;}.cls-23{fill:#f2b776;}.cls-24{fill:#9b3a3a;}</style></defs><title>background</title><rect class="cls-1" x="0.5" y="0.5" width="5000" height="1417"/><path class="cls-2" d="M173.77,672.74h-54.2a1.9,1.9,0,0,1-1.9-1.9v-81.2a1.9,1.9,0,0,1,1.9-1.9h54.2a1.9,1.9,0,0,1,1.9,1.9v81.2A1.9,1.9,0,0,1,173.77,672.74Zm-52.3-3.7h50.4v-77.4h-50.4V669h0Z" transform="translate(0.5 0.5)"/><path class="cls-3" d="M119.57,774.84a27.1,27.1,0,0,0,54.2,0v-104h-54.2v104h0Z" transform="translate(0.5 0.5)"/><path class="cls-2" d="M146.67,803.84a29,29,0,0,1-29-29v-104a1.9,1.9,0,0,1,1.9-1.9h54.2a1.9,1.9,0,0,1,1.9,1.9v103.9A29,29,0,0,1,146.67,803.84Zm-25.2-131.1v102.1a25.2,25.2,0,1,0,50.4,0V672.74h-50.4Z" transform="translate(0.5 0.5)"/><path class="cls-4" d="M242.07,632.14v142.7a27.1,27.1,0,0,0,54.2,0V632.14h-54.2Z" transform="translate(0.5 0.5)"/><path class="cls-2" d="M269.17,803.84a29,29,0,0,1-29-29V632.14a1.9,1.9,0,0,1,1.9-1.9h54.2a1.9,1.9,0,0,1,1.9,1.9v142.7A29,29,0,0,1,269.17,803.84ZM244,634v140.8a25.2,25.2,0,0,0,50.4,0V634H244Z" transform="translate(0.5 0.5)"/><path class="cls-2" d="M296.27,634h-54.2a1.9,1.9,0,0,1-1.9-1.9v-42.5a1.9,1.9,0,0,1,1.9-1.9h54.2a1.9,1.9,0,0,1,1.9,1.9v42.5A1.9,1.9,0,0,1,296.27,634Zm-52.3-3.8h50.4v-38.7H244v38.7Z" transform="translate(0.5 0.5)"/><path class="cls-2" d="M4674.4,546a3.77,3.77,0,0,1-1.4-5.1h0a3.75,3.75,0,0,1,5.1-1.4h0a3.77,3.77,0,0,1,1.4,5.1h0a3.86,3.86,0,0,1-3.3,1.9h0A4.08,4.08,0,0,1,4674.4,546Zm32.9-1.4a3.72,3.72,0,0,1,1.4-5.2h0a3.8,3.8,0,0,1,5.2,1.4h0a3.89,3.89,0,0,1-1.4,5.2h0a4.14,4.14,0,0,1-1.9.5h0A3.86,3.86,0,0,1,4707.3,544.62Zm-52-31.5a3.8,3.8,0,0,1,3.8-3.8h0a3.8,3.8,0,0,1,3.8,3.8h0a3.8,3.8,0,0,1-3.8,3.8h0A3.86,3.86,0,0,1,4655.3,513.12Zm68.6-.1h0v-0.1h0a3.78,3.78,0,0,1,3.7-3.8h0a3.78,3.78,0,0,1,3.8,3.7h0v0.1h0a3.8,3.8,0,0,1-3.8,3.8h0A3.63,3.63,0,0,1,4723.9,513Zm0-.1h0Zm-51-27.7a3.59,3.59,0,0,1,1.4-5.1h0a3.59,3.59,0,0,1,5.1,1.4h0a3.72,3.72,0,0,1-1.4,5.2h0a4.14,4.14,0,0,1-1.9.5h0A4.18,4.18,0,0,1,4672.9,485.22Zm35.6,1.3a3.75,3.75,0,0,1-1.4-5.1h0a3.89,3.89,0,0,1,5.2-1.4h0a3.75,3.75,0,0,1,1.4,5.1h0a3.86,3.86,0,0,1-3.3,1.9h0A3.39,3.39,0,0,1,4708.5,486.52Z" transform="translate(0.5 0.5)"/><rect class="cls-5" x="748.31" y="228.73" width="99.1" height="30.5"/><path class="cls-2" d="M847,260.63h-99.1a1.9,1.9,0,0,1-1.9-1.9v-30.5a1.9,1.9,0,0,1,1.9-1.9H847a1.9,1.9,0,0,1,1.9,1.9v30.5A2,2,0,0,1,847,260.63Zm-97.3-3.8h95.4v-26.7h-95.4v26.7Z" transform="translate(0.5 0.5)"/><path class="cls-2" d="M854.41,439.73h-114a1.89,1.89,0,0,1-1.6-.9,2.12,2.12,0,0,1,0-1.9l27.8-48.1V258.73a1.9,1.9,0,0,1,1.9-1.9h57.9a1.9,1.9,0,0,1,1.9,1.9v130.1l27.8,48.1a2.12,2.12,0,0,1,0,1.9A2,2,0,0,1,854.41,439.73ZM743.71,436h107.5l-26.4-45.7a1.61,1.61,0,0,1-.3-0.9V260.63h-54.1v128.7a1.4,1.4,0,0,1-.3.9Z" transform="translate(0.5 0.5)"/><path class="cls-6" d="M854.41,437.83h-114l-55.1,95.4c-9.9,17.1-1.8,31,17.9,31h188.3c19.7,0,27.8-14,17.9-31Z" transform="translate(0.5 0.5)"/><path class="cls-2" d="M891.51,566.13H703.21c-10.2,0-17.9-3.6-21.7-10.1s-3-14.9,2.1-23.8l55.1-95.4a1.8,1.8,0,0,1,1.6-.9h114a1.89,1.89,0,0,1,1.6.9l55.1,95.4c5.1,8.9,5.9,17.3,2.1,23.8C909.51,562.63,901.81,566.13,891.51,566.13Zm-150-126.4L687,534.13c-4.4,7.6-5.2,14.8-2.1,20s9.6,8.2,18.4,8.2h188.3c8.8,0,15.4-2.9,18.4-8.2s2.3-12.4-2.1-20l-54.5-94.4H741.51Z" transform="translate(0.5 0.5)"/><path class="cls-2" d="M779,477.13a14.8,14.8,0,1,1-14.8-14.8A14.77,14.77,0,0,1,779,477.13Z" transform="translate(0.5 0.5)"/><path class="cls-7" d="M764.31,493.83a16.7,16.7,0,1,1,16.7-16.7A16.73,16.73,0,0,1,764.31,493.83Zm0-29.6a12.9,12.9,0,1,0,12.9,12.9A12.93,12.93,0,0,0,764.31,464.23Z" transform="translate(0.5 0.5)"/><path class="cls-2" d="M858.81,512.93a28.7,28.7,0,1,1-28.7-28.7A28.7,28.7,0,0,1,858.81,512.93Z" transform="translate(0.5 0.5)"/><path class="cls-7" d="M830.11,543.53a30.55,30.55,0,1,1,30.6-30.6A30.58,30.58,0,0,1,830.11,543.53Zm0-57.3a26.8,26.8,0,1,0,26.8,26.8A26.8,26.8,0,0,0,830.11,486.23Z" transform="translate(0.5 0.5)"/><path class="cls-2" d="M766.71,204.23a1.5,1.5,0,0,1-1.1-.4,1.9,1.9,0,0,1-.4-2.6l35.7-49.8a1.86,1.86,0,0,1,3,2.2l-35.7,49.8A1.76,1.76,0,0,1,766.71,204.23Z" transform="translate(0.5 0.5)"/><path class="cls-2" d="M799.71,204.23a1.5,1.5,0,0,1-1.1-.4,1.9,1.9,0,0,1-.4-2.6L860,115a1.86,1.86,0,0,1,3,2.2l-61.8,86.2A1.76,1.76,0,0,1,799.71,204.23Z" transform="translate(0.5 0.5)"/><path class="cls-2" d="M832.81,204.23a1.5,1.5,0,0,1-1.1-.4,1.9,1.9,0,0,1-.4-2.6l35.7-49.8a1.86,1.86,0,0,1,3,2.2l-35.7,49.8A1.9,1.9,0,0,1,832.81,204.23Z" transform="translate(0.5 0.5)"/><path class="cls-6" d="M146.37,69.19v41.3H159a6.4,6.4,0,0,1,0,12.8h-12.6v41.6H159a6.4,6.4,0,0,1,0,12.8h-12.6v41.6H159a6.4,6.4,0,0,1,0,12.8h-12.6v41.6H159a6.4,6.4,0,0,1,0,12.8h-12.6v41.4h204.8V69.19H146.37Z" transform="translate(0.5 0.5)"/><path class="cls-2" d="M351.07,329.89H146.37a1.9,1.9,0,0,1-1.9-1.9v-41.4a1.9,1.9,0,0,1,1.9-1.9H159a4.5,4.5,0,1,0,0-9h-12.6a1.9,1.9,0,0,1-1.9-1.9v-41.6a1.9,1.9,0,0,1,1.9-1.9H159a4.5,4.5,0,0,0,0-9h-12.6a1.9,1.9,0,0,1-1.9-1.9v-41.6a1.9,1.9,0,0,1,1.9-1.9H159a4.5,4.5,0,0,0,0-9h-12.6a1.9,1.9,0,0,1-1.9-1.9v-41.6a1.9,1.9,0,0,1,1.9-1.9H159a4.5,4.5,0,0,0,0-9h-12.6a1.9,1.9,0,0,1-1.9-1.9V69.19a1.9,1.9,0,0,1,1.9-1.9h204.8a1.9,1.9,0,0,1,1.9,1.9V328A2.06,2.06,0,0,1,351.07,329.89Zm-202.9-3.8h201v-255h-201v37.6h10.7a8.3,8.3,0,1,1,0,16.6h-10.7v37.9h10.7a8.3,8.3,0,1,1,0,16.6h-10.7v37.7h10.7a8.3,8.3,0,1,1,0,16.6h-10.7V272h10.7a8.3,8.3,0,1,1,0,16.6h-10.7v37.5h0Z" transform="translate(0.5 0.5)"/><path class="cls-8" d="M133.77,123.29H159a6.4,6.4,0,0,0,0-12.8h-25.2a6.44,6.44,0,0,0-6.4,6.4A6.38,6.38,0,0,0,133.77,123.29Z" transform="translate(0.5 0.5)"/><path class="cls-2" d="M158.87,125.19h-25.1a8.3,8.3,0,1,1,0-16.6h25.1A8.3,8.3,0,1,1,158.87,125.19Zm-25.1-12.8a4.5,4.5,0,0,0,0,9h25.1a4.5,4.5,0,0,0,0-9h-25.1Z" transform="translate(0.5 0.5)"/><path class="cls-8" d="M158.87,165h-25.2a6.4,6.4,0,1,0,0,12.8h25.2a6.44,6.44,0,0,0,6.4-6.4A6.32,6.32,0,0,0,158.87,165Z" transform="translate(0.5 0.5)"/><path class="cls-2" d="M158.87,179.59h-25.1a8.3,8.3,0,1,1,0-16.6h25.1A8.3,8.3,0,1,1,158.87,179.59Zm-25.1-12.7a4.5,4.5,0,0,0,0,9h25.1a4.5,4.5,0,0,0,0-9h-25.1Z" transform="translate(0.5 0.5)"/><path class="cls-8" d="M158.87,219.39h-25.2a6.4,6.4,0,1,0,0,12.8h25.2a6.44,6.44,0,0,0,6.4-6.4A6.38,6.38,0,0,0,158.87,219.39Z" transform="translate(0.5 0.5)"/><path class="cls-2" d="M158.87,234.09h-25.1a8.3,8.3,0,1,1,0-16.6h25.1A8.3,8.3,0,1,1,158.87,234.09Zm-25.1-12.8a4.5,4.5,0,0,0,0,9h25.1a4.5,4.5,0,1,0,0-9h-25.1Z" transform="translate(0.5 0.5)"/><path class="cls-8" d="M158.87,273.79h-25.2a6.4,6.4,0,1,0,0,12.8h25.2a6.44,6.44,0,0,0,6.4-6.4A6.38,6.38,0,0,0,158.87,273.79Z" transform="translate(0.5 0.5)"/><path class="cls-2" d="M158.87,288.49h-25.1a8.3,8.3,0,1,1,0-16.6h25.1A8.3,8.3,0,1,1,158.87,288.49Zm-25.1-12.8a4.5,4.5,0,0,0,0,9h25.1a4.5,4.5,0,1,0,0-9h-25.1Z" transform="translate(0.5 0.5)"/><rect class="cls-2" x="242.07" y="108.09" width="76.1" height="49.1"/><path class="cls-2" d="M317.67,158.49h-76.1a1.9,1.9,0,0,1-1.9-1.9v-49.1a1.9,1.9,0,0,1,1.9-1.9h76.1a1.9,1.9,0,0,1,1.9,1.9v49.1A1.84,1.84,0,0,1,317.67,158.49Zm-74.2-3.7h72.3v-45.3h-72.3v45.3h0Z" transform="translate(0.5 0.5)"/><path class="cls-2" d="M505.32,769.15a19.69,19.69,0,0,1-12.3-4.4,19.34,19.34,0,0,1-2.6-27.2,19.12,19.12,0,0,1,14.9-7,19.69,19.69,0,0,1,12.3,4.4,19.21,19.21,0,0,1,7,13.1,18.92,18.92,0,0,1-4.3,14.1A19.65,19.65,0,0,1,505.32,769.15Zm0.1-34.9a15.37,15.37,0,0,0-12,5.7,15.49,15.49,0,0,0,12,25.4,15.37,15.37,0,0,0,12-5.7,15.72,15.72,0,0,0,3.5-11.4A15.47,15.47,0,0,0,505.42,734.25Z" transform="translate(0.5 0.5)"/><path class="cls-2" d="M732.62,715.55h0a19.69,19.69,0,0,1-12.3-4.4,19.21,19.21,0,0,1-7-13.1,18.92,18.92,0,0,1,4.3-14.1,19.12,19.12,0,0,1,14.9-7,19.69,19.69,0,0,1,12.3,4.4,19.34,19.34,0,0,1,2.6,27.2A18.63,18.63,0,0,1,732.62,715.55Zm0-34.9a15.37,15.37,0,0,0-12,5.7,15.72,15.72,0,0,0-3.5,11.4,15.47,15.47,0,0,0,15.5,14h0a15.37,15.37,0,0,0,12-5.7,15.56,15.56,0,0,0-2.1-21.9A16.14,16.14,0,0,0,732.62,680.65Z" transform="translate(0.5 0.5)"/><path class="cls-2" d="M617.22,839.55h0a19.69,19.69,0,0,1-12.3-4.4,19.21,19.21,0,0,1-7-13.1,18.92,18.92,0,0,1,4.3-14.1,19.12,19.12,0,0,1,14.9-7,19.69,19.69,0,0,1,12.3,4.4,18.71,18.71,0,0,1,6.9,13.1A19.23,19.23,0,0,1,617.22,839.55Zm0-34.9a15.37,15.37,0,0,0-12,5.7,15.72,15.72,0,0,0-3.5,11.4,15.55,15.55,0,0,0,27.5,8.3,15.72,15.72,0,0,0,3.5-11.4,15.46,15.46,0,0,0-5.6-10.5A16.14,16.14,0,0,0,617.22,804.65Z" transform="translate(0.5 0.5)"/><path class="cls-9" d="M641.82,674.35a32.68,32.68,0,1,0,4.5,46A32.6,32.6,0,0,0,641.82,674.35Z" transform="translate(0.5 0.5)"/><path class="cls-2" d="M621,734.25h0a34.6,34.6,0,1,1,26.7-12.6A34.69,34.69,0,0,1,621,734.25Zm0-65.4a30.8,30.8,0,0,0-19.6,54.6,31.13,31.13,0,0,0,19.6,7,30.8,30.8,0,0,0,19.6-54.6A31.13,31.13,0,0,0,621,668.85Z" transform="translate(0.5 0.5)"/><path class="cls-2" d="M616.32,803.85h0a1.9,1.9,0,0,1-1.9-1.9l2.4-69.8a1.85,1.85,0,0,1,3.7.1l-2.4,69.8A1.79,1.79,0,0,1,616.32,803.85Z" transform="translate(0.5 0.5)"/><path class="cls-2" d="M519.82,741.85a2,2,0,0,1-1.8-1.2,1.78,1.78,0,0,1,1.1-2.4l71-27.9a1.87,1.87,0,0,1,1.3,3.5l-71,27.9A1.27,1.27,0,0,1,519.82,741.85Z" transform="translate(0.5 0.5)"/><path class="cls-2" d="M653.62,698.85a2,2,0,0,1-1.9-1.8,1.88,1.88,0,0,1,1.8-1.9l60.9-2.2a1.85,1.85,0,1,1,.1,3.7l-60.9,2.2h0Z" transform="translate(0.5 0.5)"/><path class="cls-2" d="M4401.66,508.54a2,2,0,0,1-1.4-.6c-19.3-20.2-20.1-40.5-20.1-41.3V341.94a1.9,1.9,0,0,1,1.9-1.9h39.2a1.9,1.9,0,0,1,1.9,1.9v124.6c0,0.9-.8,21.2-20.1,41.4A1.82,1.82,0,0,1,4401.66,508.54ZM4384,343.74v122.8c0,0.1.8,18.7,17.7,37.3,16.9-18.6,17.7-37.2,17.7-37.4V343.74H4384Z" transform="translate(0.5 0.5)"/><path class="cls-2" d="M4401.66,523.14a1.9,1.9,0,0,1-1.9-1.9v-14.6a1.9,1.9,0,0,1,1.9-1.9,1.84,1.84,0,0,1,1.9,1.9v14.6A1.84,1.84,0,0,1,4401.66,523.14Z" transform="translate(0.5 0.5)"/><rect class="cls-6" x="4385.66" y="134.64" width="33" height="20.9"/><path class="cls-2" d="M4418.16,156.94h-33a1.9,1.9,0,0,1-1.9-1.9v-20.9a1.9,1.9,0,0,1,1.9-1.9h33a1.9,1.9,0,0,1,1.9,1.9V155A1.9,1.9,0,0,1,4418.16,156.94Zm-31.1-3.8h29.2V136h-29.2v17.1Z" transform="translate(0.5 0.5)"/><path class="cls-10" d="M4375.86,285.14v49.6a7.13,7.13,0,0,0,7.1,7.1h37.4a7.13,7.13,0,0,0,7.1-7.1V209.34h-51.7v75.8h0.1Z" transform="translate(0.5 0.5)"/><path class="cls-2" d="M4420.36,343.74h-37.1a9,9,0,0,1-9.3-9V209.34a1.9,1.9,0,0,1,1.9-1.9h51.7a1.9,1.9,0,0,1,1.9,1.9v125.4A9,9,0,0,1,4420.36,343.74Zm-42.6-132.5v123.5a5.23,5.23,0,0,0,5.2,5.2h37.4a5.23,5.23,0,0,0,5.2-5.2V211.24h-47.8Z" transform="translate(0.5 0.5)"/><path class="cls-10" d="M4420.36,155H4383a7.13,7.13,0,0,0-7.1,7.1v32.3h51.7v-32.3A7.15,7.15,0,0,0,4420.36,155Z" transform="translate(0.5 0.5)"/><path class="cls-2" d="M4427.56,196.34h-51.7a1.9,1.9,0,0,1-1.9-1.9v-32.3a9,9,0,0,1,9-9h37.4a9,9,0,0,1,9,9v32.3A1.81,1.81,0,0,1,4427.56,196.34Zm-49.8-3.8h47.9v-30.4a5.23,5.23,0,0,0-5.2-5.2h-37.4a5.23,5.23,0,0,0-5.2,5.2v30.4h-0.1Z" transform="translate(0.5 0.5)"/><polygon class="cls-11" points="4376.36 194.94 4376.36 185.14 4360.36 185.14 4360.36 285.64 4376.36 285.64 4376.36 209.84 4428.06 209.84 4428.06 194.94 4376.36 194.94"/><path class="cls-2" d="M4375.86,287h-16a1.9,1.9,0,0,1-1.9-1.9V184.64a1.9,1.9,0,0,1,1.9-1.9h16a1.9,1.9,0,0,1,1.9,1.9v7.9h49.8a1.9,1.9,0,0,1,1.9,1.9v14.9a1.9,1.9,0,0,1-1.9,1.9h-49.8v73.9A2,2,0,0,1,4375.86,287Zm-14.1-3.8H4374v-73.9a1.9,1.9,0,0,1,1.9-1.9h49.8v-11.2h-49.8a1.9,1.9,0,0,1-1.9-1.9v-7.9h-12.2v96.8Z" transform="translate(0.5 0.5)"/><path class="cls-2" d="M4367.86,287a1.9,1.9,0,0,1-1.9-1.9v-65a1.9,1.9,0,0,1,1.9-1.9,1.84,1.84,0,0,1,1.9,1.9v65A2,2,0,0,1,4367.86,287Z" transform="translate(0.5 0.5)"/><path class="cls-9" d="M4560.52,116.55a7.55,7.55,0,0,1,1-10.56l62.86-52a7.55,7.55,0,0,1,10.56,1l324.12,391.56a7.55,7.55,0,0,1-1,10.56l-62.86,52a7.55,7.55,0,0,1-10.56-1Z" transform="translate(0.5 0.5)"/><path class="cls-2" d="M4883.24,509.4L4559.06,117.76a9.39,9.39,0,0,1,1.25-13.23l62.86-52a9.39,9.39,0,0,1,13.23,1.25L4960.52,445.3a9.39,9.39,0,0,1-1.25,13.24l-62.86,52A9.24,9.24,0,0,1,4883.24,509.4ZM4633.55,56.1a5.59,5.59,0,0,0-7.88-.74l-62.94,52.1a5.59,5.59,0,0,0-.74,7.88L4886.1,506.9a5.59,5.59,0,0,0,7.88.74l62.86-52a5.59,5.59,0,0,0,.74-7.88L4633.47,56.17Z" transform="translate(0.5 0.5)"/><path class="cls-2" d="M4865.19,487.6a1.9,1.9,0,0,1,.25-2.68l27-22.38a1.9,1.9,0,1,1,2.42,2.93l-27,22.38A1.9,1.9,0,0,1,4865.19,487.6Z" transform="translate(0.5 0.5)"/><path class="cls-2" d="M4829.17,444.07a1.9,1.9,0,0,1,.25-2.68l16.95-14a1.9,1.9,0,1,1,2.42,2.93l-16.95,14A1.9,1.9,0,0,1,4829.17,444.07Z" transform="translate(0.5 0.5)"/><path class="cls-2" d="M4793.2,400.63a1.9,1.9,0,0,1,.25-2.68l27-22.38a1.9,1.9,0,0,1,2.42,2.93l-27,22.38A2,2,0,0,1,4793.2,400.63Z" transform="translate(0.5 0.5)"/><path class="cls-2" d="M4757.17,357.1a1.9,1.9,0,0,1,.25-2.68l16.95-14a1.9,1.9,0,0,1,2.68.25,1.84,1.84,0,0,1-.25,2.68l-16.95,14A2,2,0,0,1,4757.17,357.1Z" transform="translate(0.5 0.5)"/><path class="cls-2" d="M4721.15,313.58a1.9,1.9,0,0,1,.25-2.68l27-22.38a1.9,1.9,0,0,1,2.68.25,1.84,1.84,0,0,1-.25,2.68l-27,22.38A2,2,0,0,1,4721.15,313.58Z" transform="translate(0.5 0.5)"/><path class="cls-2" d="M4685.12,270.06a1.9,1.9,0,0,1,.25-2.68l16.95-14a1.9,1.9,0,1,1,2.42,2.93l-16.95,14A1.9,1.9,0,0,1,4685.12,270.06Z" transform="translate(0.5 0.5)"/><path class="cls-2" d="M4649.09,226.53a1.9,1.9,0,0,1,.25-2.68l27-22.38a1.9,1.9,0,0,1,2.68.25,1.84,1.84,0,0,1-.25,2.68l-27,22.38A1.9,1.9,0,0,1,4649.09,226.53Z" transform="translate(0.5 0.5)"/><path class="cls-2" d="M4613.06,183a1.9,1.9,0,0,1,.25-2.68l16.95-14a1.9,1.9,0,0,1,2.42,2.93l-16.95,14A1.9,1.9,0,0,1,4613.06,183Z" transform="translate(0.5 0.5)"/><path class="cls-2" d="M4577.1,139.56a1.9,1.9,0,0,1,.25-2.68l27-22.38a1.9,1.9,0,1,1,2.42,2.93l-27,22.38A2,2,0,0,1,4577.1,139.56Z" transform="translate(0.5 0.5)"/><path class="cls-2" d="M4923.2,439.58L4722,196.47a1.9,1.9,0,0,1,.25-2.68,1.84,1.84,0,0,1,2.68.25l201.31,243.19a1.9,1.9,0,0,1-.25,2.68A1.92,1.92,0,0,1,4923.2,439.58Z" transform="translate(0.5 0.5)"/><circle class="cls-2" cx="4633.75" cy="129.28" r="13.2" transform="translate(982.33 2984.92) rotate(-39.62)"/><path class="cls-2" d="M4622.2,138.84a15.1,15.1,0,1,1,21.26,2A15.15,15.15,0,0,1,4622.2,138.84Zm20.26-16.77A11.3,11.3,0,1,0,4641,138,11.35,11.35,0,0,0,4642.46,122.07Z" transform="translate(0.5 0.5)"/><path class="cls-2" d="M175.67,591.54h-57.9a12.4,12.4,0,1,1,0-24.8h57.9A12.4,12.4,0,1,1,175.67,591.54Zm-58-21a8.7,8.7,0,0,0,0,17.4h57.9a8.7,8.7,0,0,0,0-17.4h-57.9Z" transform="translate(0.5 0.5)"/><path class="cls-2" d="M173.77,570.54h-54.2a1.82,1.82,0,0,1-1.8-1.5l-6.5-28.1a1.88,1.88,0,0,1,.4-1.6,1.8,1.8,0,0,1,1.5-.7h67.2a2.13,2.13,0,0,1,1.5.7,1.88,1.88,0,0,1,.4,1.6l-6.5,28.1A2.23,2.23,0,0,1,173.77,570.54Zm-52.7-3.8h51.2l5.6-24.3h-62.5Z" transform="translate(0.5 0.5)"/><path class="cls-2" d="M146.67,616.14h-27.1a1.9,1.9,0,0,1,0-3.8h27.1A1.9,1.9,0,0,1,146.67,616.14Z" transform="translate(0.5 0.5)"/><path class="cls-2" d="M146.67,654h-27.1a1.9,1.9,0,0,1-1.9-1.9,1.84,1.84,0,0,1,1.9-1.9h27.1A1.9,1.9,0,0,1,146.67,654Z" transform="translate(0.5 0.5)"/><path class="cls-2" d="M146.67,691.94h-27.1a1.9,1.9,0,0,1,0-3.8h27.1a1.9,1.9,0,0,1,1.9,1.9A2,2,0,0,1,146.67,691.94Z" transform="translate(0.5 0.5)"/><path class="cls-2" d="M146.67,729.84h-27.1a1.9,1.9,0,0,1,0-3.8h27.1a1.9,1.9,0,0,1,1.9,1.9A2,2,0,0,1,146.67,729.84Z" transform="translate(0.5 0.5)"/><path class="cls-2" d="M298.17,591.54h-58a12.4,12.4,0,0,1,0-24.8h58A12.4,12.4,0,1,1,298.17,591.54Zm-58-21a8.7,8.7,0,0,0,0,17.4h58a8.7,8.7,0,0,0,0-17.4h-58Z" transform="translate(0.5 0.5)"/><path class="cls-2" d="M296.27,570.54h-54.2a1.82,1.82,0,0,1-1.8-1.5l-6.5-28.1a1.88,1.88,0,0,1,.4-1.6,1.8,1.8,0,0,1,1.5-.7h67.2a2.13,2.13,0,0,1,1.5.7,1.88,1.88,0,0,1,.4,1.6l-6.5,28.1A2.23,2.23,0,0,1,296.27,570.54Zm-52.7-3.8h51.2l5.6-24.3h-62.5Z" transform="translate(0.5 0.5)"/><path class="cls-2" d="M269.17,616.14h-27.1a1.9,1.9,0,0,1,0-3.8h27.1A1.9,1.9,0,0,1,269.17,616.14Z" transform="translate(0.5 0.5)"/><path class="cls-2" d="M269.17,654h-27.1a1.9,1.9,0,0,1-1.9-1.9,1.84,1.84,0,0,1,1.9-1.9h27.1A1.9,1.9,0,0,1,269.17,654Z" transform="translate(0.5 0.5)"/><path class="cls-2" d="M269.17,691.94h-27.1a1.9,1.9,0,0,1,0-3.8h27.1a1.9,1.9,0,0,1,1.9,1.9A2,2,0,0,1,269.17,691.94Z" transform="translate(0.5 0.5)"/><path class="cls-2" d="M269.17,729.84h-27.1a1.9,1.9,0,0,1,0-3.8h27.1a1.9,1.9,0,0,1,1.9,1.9A2,2,0,0,1,269.17,729.84Z" transform="translate(0.5 0.5)"/><path class="cls-2" d="M489.55,540.54H371.15a1.9,1.9,0,0,1,0-3.8h118.4a1.9,1.9,0,0,1,1.9,1.9A2,2,0,0,1,489.55,540.54Z" transform="translate(0.5 0.5)"/><path class="cls-2" d="M480.95,385v-49.4a1.9,1.9,0,0,1,3.8,0V385a1.9,1.9,0,0,1-1.9,1.9A1.84,1.84,0,0,1,480.95,385Z" transform="translate(0.5 0.5)"/><path class="cls-2" d="M868.34,811.4H749.94a1.9,1.9,0,0,1,0-3.8h118.4a1.9,1.9,0,0,1,1.9,1.9A2,2,0,0,1,868.34,811.4Z" transform="translate(0.5 0.5)"/><path class="cls-2" d="M500.75,635.94H382.35a1.9,1.9,0,0,1,0-3.8h118.4a1.9,1.9,0,0,1,1.9,1.9A2,2,0,0,1,500.75,635.94Z" transform="translate(0.5 0.5)"/><path class="cls-2" d="M637.75,588.14H416.45c-1.87,0-3.55-.8-3.55-1.9s1.5-1.9,3.55-1.9H637.75c1.87,0,3.55.8,3.55,1.9C641.11,587.34,639.62,588.14,637.75,588.14Z" transform="translate(0.5 0.5)"/><path class="cls-2" d="M4548.55,720.64H4481a11.6,11.6,0,1,1,0-23.2h67.6A11.6,11.6,0,0,1,4548.55,720.64Zm-67.6-19.5a7.8,7.8,0,1,0,0,15.6h67.6a7.8,7.8,0,0,0,0-15.6H4481Z" transform="translate(0.5 0.5)"/><path class="cls-2" d="M4876.85,862.14h-67.6a11.6,11.6,0,0,1,0-23.2h67.6A11.6,11.6,0,0,1,4876.85,862.14Zm-67.6-19.4a7.8,7.8,0,1,0,0,15.6h67.6a7.8,7.8,0,1,0,0-15.6h-67.6Z" transform="translate(0.5 0.5)"/><path class="cls-12" d="M4619.55,983.74l-34.1-64.8h0c-43.3,21.2-95.2-20.5-138.8-5.1l-36.8,69.9a29.16,29.16,0,0,0-3,8.4,38.12,38.12,0,0,0,10.5,1.2h194.7a38.12,38.12,0,0,0,10.5-1.2A27.5,27.5,0,0,0,4619.55,983.74Z" transform="translate(0.5 0.5)"/><path class="cls-2" d="M4612.05,995.24h-194.7a38.41,38.41,0,0,1-11.1-1.3,2,2,0,0,1-1.3-2.1,31.93,31.93,0,0,1,3.2-9.1l36.8-69.8a2.19,2.19,0,0,1,1-.9,67.21,67.21,0,0,1,22.5-3.6c14.5,0,29.8,3.8,44.5,7.4s29.7,7.3,44,7.3h0c10.4,0,19.4-1.9,27.6-5.9a1.85,1.85,0,0,1,2.5.8l34.1,64.8a29.51,29.51,0,0,1,3.2,9,2,2,0,0,1-1.3,2.1A37,37,0,0,1,4612.05,995.24Zm-203-4.5a39.65,39.65,0,0,0,8.3.7h194.7a39.65,39.65,0,0,0,8.3-.7,29.79,29.79,0,0,0-2.4-6.1l-33.3-63.2a66.39,66.39,0,0,1-27.6,5.6h0c-14.7,0-30.1-3.8-44.9-7.4-14.5-3.6-29.5-7.3-43.6-7.3a60.41,60.41,0,0,0-20.5,3.2l-36.5,69.2A30.05,30.05,0,0,0,4409.05,990.74Z" transform="translate(0.5 0.5)"/><rect class="cls-13" x="4402.95" y="1211.44" width="558.5" height="27.1"/><path class="cls-2" d="M4961,1239.94h-558.5a1.9,1.9,0,0,1-1.9-1.9v-27.1a1.9,1.9,0,0,1,1.9-1.9H4961a1.9,1.9,0,0,1,1.9,1.9V1238A1.9,1.9,0,0,1,4961,1239.94Zm-556.6-3.8h554.7v-23.3h-554.7v23.3Z" transform="translate(0.5 0.5)"/><path class="cls-13" d="M4657,756h-95.3v27.1H4657a28.12,28.12,0,0,1-3.6-13.6A27.74,27.74,0,0,1,4657,756Z" transform="translate(0.5 0.5)"/><path class="cls-2" d="M4657,785h-95.3a1.9,1.9,0,0,1-1.9-1.9V756a1.9,1.9,0,0,1,1.9-1.9H4657a1.89,1.89,0,0,1,1.6.9,1.85,1.85,0,0,1,0,1.9,26.48,26.48,0,0,0-3.4,12.6,25.12,25.12,0,0,0,3.4,12.6,2.12,2.12,0,0,1,0,1.9A1.78,1.78,0,0,1,4657,785Zm-93.4-3.8H4654a30,30,0,0,1-2.5-11.7,28.31,28.31,0,0,1,2.5-11.7h-90.4v23.4Z" transform="translate(0.5 0.5)"/><path class="cls-13" d="M4668.15,794.34v391.6h27.1V794.34A27.3,27.3,0,0,1,4668.15,794.34Z" transform="translate(0.5 0.5)"/><path class="cls-2" d="M4695.25,1187.84h-27.1a1.9,1.9,0,0,1-1.9-1.9V794.34a1.89,1.89,0,0,1,.9-1.6,1.85,1.85,0,0,1,1.9,0,25.39,25.39,0,0,0,25.3,0,2.12,2.12,0,0,1,1.9,0,1.8,1.8,0,0,1,.9,1.6v391.6A1.9,1.9,0,0,1,4695.25,1187.84Zm-25.2-3.8h23.3V797.34a28.66,28.66,0,0,1-23.3,0V1184Z" transform="translate(0.5 0.5)"/><path class="cls-13" d="M4695.25,744.84v-41.2h-27.1v41.2A27.3,27.3,0,0,1,4695.25,744.84Z" transform="translate(0.5 0.5)"/><path class="cls-2" d="M4695.25,746.74a2.92,2.92,0,0,1-.9-0.2,25.39,25.39,0,0,0-25.3,0,2.12,2.12,0,0,1-1.9,0,1.8,1.8,0,0,1-.9-1.6v-41.2a1.9,1.9,0,0,1,1.9-1.9h27.1a1.9,1.9,0,0,1,1.9,1.9v41.2a1.89,1.89,0,0,1-.9,1.6A3,3,0,0,1,4695.25,746.74Zm-13.5-7.4a28.31,28.31,0,0,1,11.7,2.5v-36.3h-23.3v36.3A27.53,27.53,0,0,1,4681.75,739.34Z" transform="translate(0.5 0.5)"/><path class="cls-14" d="M4695.25,744.84a27.3,27.3,0,0,0-27.1,0A28.72,28.72,0,0,0,4657,756a28.12,28.12,0,0,0-3.6,13.6,28.42,28.42,0,0,0,3.6,13.6,28.72,28.72,0,0,0,11.2,11.2,28,28,0,0,0,13.5,3.6,28.73,28.73,0,0,0,13.6-3.6A28.18,28.18,0,0,0,4695.25,744.84Z" transform="translate(0.5 0.5)"/><path class="cls-2" d="M4681.75,799.74a30.17,30.17,0,0,1-14.5-56.6,29.21,29.21,0,0,1,28.9,0,30,30,0,0,1,0,52.8A29,29,0,0,1,4681.75,799.74Zm0-56.6a25.12,25.12,0,0,0-12.6,3.4,26,26,0,0,0-10.4,10.4,26.48,26.48,0,0,0-3.4,12.6,25.12,25.12,0,0,0,3.4,12.6,26,26,0,0,0,10.4,10.4,25.39,25.39,0,0,0,25.3,0,26.23,26.23,0,0,0,0-46.2A27.8,27.8,0,0,0,4681.75,743.14Z" transform="translate(0.5 0.5)"/><path class="cls-15" d="M4598.25,1171.84a39,39,0,0,1-39,39H4475a39,39,0,0,1-39-39h0a39,39,0,0,1,39-39h84.3a39,39,0,0,1,39,39h0Z" transform="translate(0.5 0.5)"/><path class="cls-16" d="M4559.25,1212.74H4475a40.9,40.9,0,0,1,0-81.8h84.3A40.9,40.9,0,1,1,4559.25,1212.74Zm-84.3-78a37.2,37.2,0,1,0,0,74.4h84.3a37.2,37.2,0,0,0,0-74.4H4475Z" transform="translate(0.5 0.5)"/><path class="cls-14" d="M4547.05,1132.84v-2.2a29.9,29.9,0,1,0-59.8,0v2.2h59.8Z" transform="translate(0.5 0.5)"/><path class="cls-2" d="M4547.05,1134.74h-59.8a1.9,1.9,0,0,1-1.9-1.9v-2.2a31.8,31.8,0,0,1,63.6,0v2.2A2,2,0,0,1,4547.05,1134.74Zm-58-3.8h56.1v-0.3a28,28,0,1,0-56,0v0.3h-0.1Z" transform="translate(0.5 0.5)"/><path class="cls-17" d="M4505,1028.94s15.6,6.7,11.2,22.3c0,0-20.1,9.4-15.6,26.8,0,0,3.8,13.4,16.4,12.9,0,0,12.1-.8,16.9-11.7C4533.85,1079.24,4546.45,1044.64,4505,1028.94Z" transform="translate(0.5 0.5)"/><path class="cls-2" d="M4516.35,1092.84c-10.7,0-16.2-9.4-17.6-14.3-4.3-16.6,12-26.5,15.8-28.6,3.3-13.3-9.7-19-10.3-19.3a1.88,1.88,0,0,1-1-2.4,1.93,1.93,0,0,1,2.4-1.1c42.7,16.1,30.1,52.3,30,52.7-5.3,11.9-18,12.9-18.6,12.9Zm0-56.2a18.74,18.74,0,0,1,1.6,15.1,2,2,0,0,1-1,1.2c-0.8.4-18.6,8.9-14.6,24.6,0.1,0.4,3.5,11.5,14,11.5h0.5c0.4,0,11-.9,15.3-10.6C4532.55,1077.44,4541.05,1052.64,4516.35,1036.64Z" transform="translate(0.5 0.5)"/><path class="cls-2" d="M4843.05,1212.84a117.67,117.67,0,0,1-34.1-230.3V860.34a1.9,1.9,0,0,1,1.9-1.9h64.3a1.9,1.9,0,0,1,1.9,1.9v122.3A117.61,117.61,0,0,1,4843.05,1212.84Zm-30.3-350.7V984a1.92,1.92,0,0,1-1.4,1.8,113.88,113.88,0,0,0,31.6,223.3c62.8,0,114-51.1,114-113.9a114.39,114.39,0,0,0-82.3-109.4,1.92,1.92,0,0,1-1.4-1.8V862.14h-60.5Z" transform="translate(0.5 0.5)"/><path class="cls-18" d="M4746.05,1077.84a100.55,100.55,0,0,0-1.6,17.4,98.6,98.6,0,1,0,197.2,0c0-1.8-.2-3.5-0.3-5.3C4872.85,1126.44,4807.65,1071.64,4746.05,1077.84Z" transform="translate(0.5 0.5)"/><path class="cls-2" d="M4843.05,1195.74a100.63,100.63,0,0,1-100.5-100.5,92.06,92.06,0,0,1,1.7-17.7,1.73,1.73,0,0,1,1.7-1.5c3.3-.3,6.8-0.5,10.3-0.5,21.3,0,42.5,6,64.9,12.3s45.6,12.9,68.8,12.9a105.85,105.85,0,0,0,50.6-12.4,1.91,1.91,0,0,1,1.8,0,2,2,0,0,1,1,1.5l0.1,1.7c0.1,1.2.2,2.5,0.2,3.7A100.78,100.78,0,0,1,4843.05,1195.74Zm-95.4-116.2a96.65,96.65,0,1,0,192,15.7,17.71,17.71,0,0,0-.1-2.3,108.2,108.2,0,0,1-49.8,11.5c-23.8,0-47.2-6.6-69.9-13-22.2-6.3-43.1-12.2-63.9-12.2A77.67,77.67,0,0,0,4747.65,1079.54Z" transform="translate(0.5 0.5)"/><rect class="cls-19" x="4814.45" y="816.34" width="58.2" height="25.1"/><path class="cls-2" d="M4872.15,842.74H4814a1.9,1.9,0,0,1-1.9-1.9v-25.1a1.9,1.9,0,0,1,1.9-1.9h58.2a1.9,1.9,0,0,1,1.9,1.9v25.1A1.9,1.9,0,0,1,4872.15,842.74Zm-56.4-3.7h54.5v-21.3h-54.5V839Z" transform="translate(0.5 0.5)"/><rect class="cls-19" x="4486.15" y="674.74" width="58.2" height="25.1"/><path class="cls-2" d="M4543.85,701.14h-58.2a1.9,1.9,0,0,1-1.9-1.9v-25.1a1.9,1.9,0,0,1,1.9-1.9h58.2a1.9,1.9,0,0,1,1.9,1.9v25.1A1.9,1.9,0,0,1,4543.85,701.14Zm-56.4-3.7H4542V676h-54.5v21.4h0Z" transform="translate(0.5 0.5)"/><rect class="cls-19" x="4822.55" y="860.84" width="41.9" height="33.9"/><path class="cls-2" d="M4864,896.14h-41.9a1.9,1.9,0,0,1-1.9-1.9v-33.9a1.9,1.9,0,0,1,1.9-1.9H4864a1.9,1.9,0,0,1,1.9,1.9v33.9A1.9,1.9,0,0,1,4864,896.14Zm-40-3.8h38.2v-30.1H4824v30.1Z" transform="translate(0.5 0.5)"/><path class="cls-2" d="M4548.55,740h-12.8a1.9,1.9,0,0,1-1.9-1.9v-19.4a1.9,1.9,0,0,1,1.9-1.9h12.8a1.9,1.9,0,0,1,1.9,1.9v19.4A2,2,0,0,1,4548.55,740Zm-11-3.8h9.1v-15.6h-9.1v15.6Z" transform="translate(0.5 0.5)"/><path class="cls-2" d="M4612.05,1011.24h-194.7c-19.7,0-24.5-6.8-25-7.6-8.9-9.8,1.5-28.2,2-28.9l84.7-160.8V801a1.9,1.9,0,0,1,1.9-1.9h67.6a1.9,1.9,0,0,1,1.9,1.9v12.9l84.7,160.9c0.4,0.7,10.8,19.1,1.7,29.1C4636.55,1004.54,4631.75,1011.24,4612.05,1011.24Zm-129.3-208.3v11.5a2.92,2.92,0,0,1-.2.9l-85,161.3c-0.1.2-9.5,16.8-2.3,24.9,0.2,0.3,4.5,6.1,22,6.1H4612c17.6,0,21.8-5.8,21.9-5.9,7.4-8.2-2-24.9-2.1-25l-85-161.4a2.92,2.92,0,0,1-.2-0.9v-11.5h-63.8Z" transform="translate(0.5 0.5)"/><polygon class="cls-19" points="4515.25 719.24 4494.25 719.24 4494.25 738.64 4497.45 738.64 4532.95 738.64 4536.15 738.64 4536.15 719.24 4515.25 719.24"/><path class="cls-2" d="M4535.65,740h-41.9a1.9,1.9,0,0,1-1.9-1.9v-19.4a1.9,1.9,0,0,1,1.9-1.9h41.9a1.9,1.9,0,0,1,1.9,1.9v19.4A1.9,1.9,0,0,1,4535.65,740Zm-40-3.8h38.2v-15.6h-38.2v15.6Z" transform="translate(0.5 0.5)"/><polygon class="cls-13" points="4549.05 738.64 4536.15 738.64 4532.95 738.64 4497.45 738.64 4494.25 738.64 4481.45 738.64 4468.25 738.64 4468.25 801.54 4481.45 801.54 4497.45 801.54 4532.95 801.54 4549.05 801.54 4562.25 801.54 4562.25 738.64 4549.05 738.64"/><path class="cls-2" d="M4561.75,802.94h-94a1.9,1.9,0,0,1-1.9-1.9v-62.9a1.9,1.9,0,0,1,1.9-1.9h94a1.9,1.9,0,0,1,1.9,1.9V801A2,2,0,0,1,4561.75,802.94Zm-92.2-3.8h90.3V740h-90.2v59.1h-0.1Z" transform="translate(0.5 0.5)"/><path class="cls-14" d="M4718.35,1210.94v-7.7a17.24,17.24,0,0,0-17.3-17.3h-38.7a17.24,17.24,0,0,0-17.3,17.3v7.7h73.3Z" transform="translate(0.5 0.5)"/><path class="cls-2" d="M4718.35,1212.74h-73.3a1.9,1.9,0,0,1-1.9-1.9v-7.7a19.2,19.2,0,0,1,19.2-19.2h38.7a19.2,19.2,0,0,1,19.2,19.2v7.7A1.84,1.84,0,0,1,4718.35,1212.74ZM4647,1209h69.5v-5.8a15.41,15.41,0,0,0-15.4-15.4h-38.7a15.41,15.41,0,0,0-15.4,15.4v5.8h0Z" transform="translate(0.5 0.5)"/><path class="cls-2" d="M4598.25,1173.74h-81.2a1.9,1.9,0,1,1,0-3.8h81.2a1.9,1.9,0,0,1,1.9,1.9A1.84,1.84,0,0,1,4598.25,1173.74Z" transform="translate(0.5 0.5)"/><path class="cls-2" d="M4853.75,983.14a1.9,1.9,0,0,1-1.9-1.9v-49.9a1.9,1.9,0,0,1,3.8,0v49.9A1.9,1.9,0,0,1,4853.75,983.14Z" transform="translate(0.5 0.5)"/><path class="cls-2" d="M4567.75,890.84a1.94,1.94,0,0,1-1.7-1l-25.7-51.5a1.86,1.86,0,0,1,3.3-1.7l25.7,51.5a1.82,1.82,0,0,1-.8,2.5A1.08,1.08,0,0,1,4567.75,890.84Z" transform="translate(0.5 0.5)"/><path class="cls-2" d="M4853.75,817.64h-21.4a1.9,1.9,0,0,1-1.9-1.9v-96.9c0-12.1-10.2-25.8-21.8-29.3l-266.8-79.8c-4.3-1.3-8.1-.9-10.6,1s-4,5.4-4,9.9v53.6a1.9,1.9,0,0,1-1.9,1.9H4504a1.9,1.9,0,0,1-1.9-1.9v-53.6c0-12.4,5.1-23.4,14.1-30.1s21.1-8.4,32.9-4.9l266.8,79.8c22.3,6.7,39.8,30.1,39.8,53.4v96.9A1.9,1.9,0,0,1,4853.75,817.64Zm-19.6-3.7h17.7v-95c0-21.7-16.3-43.6-37.1-49.8L4548,589.34c-10.7-3.2-21.6-1.6-29.5,4.3s-12.6,15.8-12.6,27.1v51.7h17.7v-51.7c0-5.7,1.9-10.3,5.5-12.9s8.5-3.2,13.9-1.6l266.8,79.8c13,3.9,24.5,19.3,24.5,32.9v95h-0.1Z" transform="translate(0.5 0.5)"/><path class="cls-2" d="M557.24,390.31V146.91c0-4.93.8-9.36,1.9-9.36s1.9,3.94,1.9,9.36v243.4c0,4.93-.8,9.36-1.9,9.36S557.24,395.73,557.24,390.31Z" transform="translate(0.5 0.5)"/><rect class="cls-20" x="874.2" y="1254.66" width="4.71" height="30.73" transform="translate(-604.73 1701.37) rotate(-71.6)"/><path class="cls-21" d="M858.91,1268.43l2.68-8,32.73,10.89-2.68,8Zm5-3.1-0.3.89,25.58,8.51,0.3-.89Z" transform="translate(0.5 0.5)"/><rect class="cls-20" x="843.02" y="1245.76" width="17.53" height="32.05" transform="translate(-613.86 1672.22) rotate(-71.6)"/><path class="cls-21" d="M832,1264.45l5.53-16.64a1.78,1.78,0,0,1,2.38-1.19l30.41,10.12a1.78,1.78,0,0,1,1.19,2.38L866,1275.76a1.78,1.78,0,0,1-2.38,1.19l-30.41-10.12A1.89,1.89,0,0,1,832,1264.45Zm8.52-13.66-4.34,13.06,26.83,8.93,4.34-13.06Z" transform="translate(0.5 0.5)"/><rect class="cls-20" x="546.3" y="1169.95" width="83.89" height="7.54" transform="translate(-710.65 1361.89) rotate(-71.6)"/><path class="cls-21" d="M569.4,1211.85l26.54-79.78a1.78,1.78,0,0,1,2.38-1.19l7.15,2.38a1.78,1.78,0,0,1,1.19,2.38l-26.48,79.6a1.78,1.78,0,0,1-2.38,1.19l-7.15-2.38A1.73,1.73,0,0,1,569.4,1211.85Zm29.52-76.8-25.29,76,3.58,1.19,25.29-76Z" transform="translate(0.5 0.5)"/><path class="cls-20" d="M441.24,1218.48l-31.36-7.25,31.89-3.3a7.66,7.66,0,0,1,2,5.42A6.21,6.21,0,0,1,441.24,1218.48Z" transform="translate(0.5 0.5)"/><path class="cls-21" d="M408.27,1210.69a1.81,1.81,0,0,1,1.61-1.25l31.89-3.3a2.23,2.23,0,0,1,1.73.77,9.7,9.7,0,0,1,2.33,6.73,10.79,10.79,0,0,1-3.16,6.5,1.92,1.92,0,0,1-1.73.42l-31-7.13-0.54-.18a2.06,2.06,0,0,1-1.13-2.56h0Zm32.85-.79-19.73,2,19.2,4.4a5.57,5.57,0,0,0,1.43-3.1A6.2,6.2,0,0,0,441.11,1209.9Z" transform="translate(0.5 0.5)"/><path class="cls-20" d="M496.76,1051.6l-29.46-13,23.56,21.74a7.66,7.66,0,0,0,4.83-3.16C496.94,1055.83,497.18,1053.92,496.76,1051.6Z" transform="translate(0.5 0.5)"/><path class="cls-21" d="M465.69,1038.08l0.18-.54a1.74,1.74,0,0,1,2.38-.6l29.46,13a1.92,1.92,0,0,1,1.13,1.37,9.38,9.38,0,0,1-7.27,11.09,2.16,2.16,0,0,1-1.85-.42l-23.56-21.74A2.07,2.07,0,0,1,465.69,1038.08Zm29.4,14.95-18-8,14.61,13.4a5.81,5.81,0,0,0,2.86-2A11.6,11.6,0,0,0,495.09,1053Z" transform="translate(0.5 0.5)"/><path class="cls-20" d="M795.18,1257a35.26,35.26,0,0,1,8.45-25.4L498.72,1045.1l-7.8,23.43,248,144.29-6.84,20.57-285.8-30.71-7,21.11Z" transform="translate(0.5 0.5)"/><path class="cls-21" d="M436.77,1225.34l8.21-24.68,1.55,0.12,284.25,30.59,5.89-17.71-248-144.29,9-27,308.67,188.91-1.55,1.67a32.61,32.61,0,0,0-8,24l0.24,2.27Zm10.84-20.63-5.77,17.35,351.25,32.82a37.18,37.18,0,0,1,7.56-22.72L499.74,1048l-6.55,19.68L741.2,1212l-7.8,23.43-1.55-.12Z" transform="translate(0.5 0.5)"/><path class="cls-20" d="M843,1258.78a25.45,25.45,0,1,0-32.18,16.11A25.46,25.46,0,0,0,843,1258.78Zm-41.14-13.69a17.72,17.72,0,1,1,11.22,22.41A17.7,17.7,0,0,1,801.91,1245.09Z" transform="translate(0.5 0.5)"/><path class="cls-21" d="M793,1242.12a27.33,27.33,0,1,1,17.31,34.56A27.35,27.35,0,0,1,793,1242.12Zm48.3,16.07a23.56,23.56,0,1,0-29.8,14.92A23.57,23.57,0,0,0,841.26,1258.18Zm-41.14-13.69a19.61,19.61,0,1,1,12.41,24.79A19.59,19.59,0,0,1,800.12,1244.5Zm33.81,11.25a15.83,15.83,0,1,0-20,10A15.81,15.81,0,0,0,833.93,1255.75Z" transform="translate(0.5 0.5)"/><rect class="cls-20" x="559.17" y="1208.92" width="26.96" height="34.5" transform="translate(-711.11 1653.38) rotate(-83.35)"/><path class="cls-21" d="M555.27,1210.13a1.44,1.44,0,0,1,.66-0.78,1.55,1.55,0,0,1,1.31-.36l34.22,4a1.91,1.91,0,0,1,1.67,2.15L590,1241.94a2.13,2.13,0,0,1-.65,1.37,1.55,1.55,0,0,1-1.31.36l-34.22-4a1.91,1.91,0,0,1-1.67-2.15l3.14-26.77A0.93,0.93,0,0,1,555.27,1210.13Zm33.86,6.3-30.58-3.62-2.73,23.13,30.58,3.62Z" transform="translate(0.5 0.5)"/><rect class="cls-20" x="593.4" y="1105.74" width="26.96" height="34.5" transform="translate(-668.5 1084.28) rotate(-59.85)"/><path class="cls-21" d="M583.42,1125.52l0.12-.36,13.52-23.32a2,2,0,0,1,2.62-.72l29.82,17.27a1.73,1.73,0,0,1,.84,1.07,2,2,0,0,1-.3,1.49l-13.52,23.32a2,2,0,0,1-2.62.72l-29.82-17.27a1.73,1.73,0,0,1-.84-1.07C583.36,1126.3,583.3,1125.88,583.42,1125.52Zm16.08-20.28-11.67,20.16,26.66,15.42,11.67-20.16Z" transform="translate(0.5 0.5)"/><path class="cls-2" d="M4548.45,233.8l-43.39,96.39a1.9,1.9,0,0,1-3.47-1.56L4545,232.24a1.9,1.9,0,0,1,2.51-1A1.84,1.84,0,0,1,4548.45,233.8Z" transform="translate(0.5 0.5)"/><path class="cls-2" d="M4576.26,271l-77.56,172.3c-0.73,1.63-2.07,2.79-3,2.38s-1-2-.2-3.82l77.56-172.3c0.73-1.63,2.07-2.79,3-2.38S4577.07,269.24,4576.26,271Z" transform="translate(0.5 0.5)"/><circle class="cls-22" cx="280.04" cy="1089.69" r="147.44"/><circle class="cls-22" cx="147.24" cy="1210.26" r="87.92"/><path class="cls-2" d="M896.3,920.14L790.19,867.62a1.9,1.9,0,0,1,1.69-3.41L898,916.74a1.9,1.9,0,0,1,.86,2.55A2,2,0,0,1,896.3,920.14Z" transform="translate(0.5 0.5)"/><path class="cls-2" d="M650.57,1076.29l53.52-207.06c0.45-1.75,1.63-3.12,2.7-2.85s1.48,1.87,1,3.8l-53.52,207.06c-0.45,1.75-1.63,3.12-2.7,2.85C650.53,1079.63,650.12,1078,650.57,1076.29Z" transform="translate(0.5 0.5)"/><path class="cls-2" d="M4235.93,184.47H4065a1.9,1.9,0,0,1,0-3.8h170.9a1.9,1.9,0,0,1,1.9,1.9A2,2,0,0,1,4235.93,184.47Z" transform="translate(0.5 0.5)"/><path class="cls-2" d="M190,397.83v70.32c0,0.59-.8,1.13-1.9,1.13s-1.9-.48-1.9-1.13V397.83c0-.59.8-1.13,1.9-1.13S190,397.23,190,397.83Z" transform="translate(0.5 0.5)"/><path class="cls-2" d="M246.87,505.71V432.84c0-.62.8-1.17,1.9-1.17s1.9,0.49,1.9,1.17v72.88c0,0.62-.8,1.17-1.9,1.17S246.87,506.33,246.87,505.71Z" transform="translate(0.5 0.5)"/><rect class="cls-20" x="4094.46" y="409.84" width="210.07" height="364.77"/><path class="cls-2" d="M4305.83,775.74H4092.15V407.53h213.69V775.74Zm-210.07-3.62h206.45v-361H4095.77v361Z" transform="translate(0.5 0.5)"/><rect class="cls-23" x="4071.48" y="426.31" width="219.84" height="336.72"/><path class="cls-2" d="M4292.63,764.34H4069.17V424h223.46V764.34Zm-219.84-3.62H4289V427.62H4072.79v333.1Z" transform="translate(0.5 0.5)"/><path class="cls-21" d="M4245.22,622.12a1.71,1.71,0,0,1-1.81,1.81H4139.19V532a1.52,1.52,0,0,1-.72-2,1.66,1.66,0,0,1,.72-1.09V512.11a1.81,1.81,0,1,1,3.62,0V529.3c0.36,0.18.72,0.18,1.09,0.36a2,2,0,0,1,1.27,2.17,1.8,1.8,0,0,1-1.81,1.27h-0.54v87.21h84.14a10.37,10.37,0,0,0-.72-2.53,1.78,1.78,0,0,1,3.44-.9c0.36,1.09.54,2.17,0.9,3.26v0.36h12.85A1.56,1.56,0,0,1,4245.22,622.12Zm-45.42-52.83a1.75,1.75,0,0,0,2.53,0,1.76,1.76,0,0,0,.18-2.53,30,30,0,0,0-2.35-2.53,1.79,1.79,0,1,0-2.53,2.53C4198.36,567.66,4199.08,568.39,4199.8,569.29Zm-14.11-13.57a1.33,1.33,0,0,0,1.09.36,1.65,1.65,0,0,0,1.45-.72,1.92,1.92,0,0,0-.18-2.53l-2.71-2.17a1.81,1.81,0,0,0-2.17,2.89C4184.06,554.27,4184.79,555,4185.69,555.72Zm7.42,6.51a1.75,1.75,0,0,0,2.53,0,1.75,1.75,0,0,0,0-2.53,32.35,32.35,0,0,0-2.53-2.35,1.8,1.8,0,1,0-2.35,2.71A27.82,27.82,0,0,0,4193.11,562.23Zm-17.91-14.29c0.9,0.54,1.81,1.27,2.71,1.81a2.57,2.57,0,0,0,1.09.36,2.23,2.23,0,0,0,1.45-.72,1.78,1.78,0,0,0-.54-2.53,23.58,23.58,0,0,0-2.71-1.81,1.78,1.78,0,0,0-2.53.54A1.61,1.61,0,0,0,4175.2,547.94ZM4215,590.46c0.54,0.9,1.09,2,1.63,2.9a1.9,1.9,0,0,0,1.63.9,1.63,1.63,0,0,0,.9-0.18,1.83,1.83,0,0,0,.72-2.53c-0.54-.9-1.09-2-1.63-2.9A1.86,1.86,0,1,0,4215,590.46Zm8.14,17.91c0.36,1.09.72,2,1.09,3.08a1.74,1.74,0,0,0,1.63,1.27,0.66,0.66,0,0,0,.54-0.18,1.81,1.81,0,0,0,1.09-2.35l-1.09-3.26a1.88,1.88,0,0,0-2.35-1.09A2.32,2.32,0,0,0,4223.15,608.37ZM4206,576.89a1.65,1.65,0,0,0,1.45.72,2.57,2.57,0,0,0,1.09-.36,2,2,0,0,0,.36-2.53,25.89,25.89,0,0,1-2-2.71,1.81,1.81,0,1,0-2.89,2.17A25.89,25.89,0,0,1,4206,576.89Zm13.39,22.44a15.65,15.65,0,0,1,1.27,3.08,1.74,1.74,0,0,0,1.63,1.09,1.09,1.09,0,0,0,.72-0.18,1.8,1.8,0,0,0,.9-2.35,23.55,23.55,0,0,0-1.45-3.08,1.8,1.8,0,0,0-2.35-.9A1.91,1.91,0,0,0,4219.35,599.33Zm-7.78-14.47a1.85,1.85,0,0,0,1.45.9,0.86,0.86,0,0,0,.9-0.36,1.78,1.78,0,0,0,.54-2.53c-0.54-.9-1.27-1.81-1.81-2.9a1.83,1.83,0,0,0-3.08,2A20.94,20.94,0,0,1,4211.57,584.85Zm-44.69-41.8c0.9,0.54,2,1.09,2.9,1.63a1.63,1.63,0,0,0,.9.18,2.16,2.16,0,0,0,1.63-.9,1.83,1.83,0,0,0-.72-2.53c-0.9-.54-2-1.09-2.9-1.63A1.86,1.86,0,0,0,4166.87,543.06Zm-32.93-15.74-3.26-.54a1.85,1.85,0,1,0-.72,3.62l3.26,0.54h0.36a1.76,1.76,0,0,0,1.81-1.45A1.88,1.88,0,0,0,4133.94,527.31Zm97.89,114.53h0a1.86,1.86,0,0,0,1.81-2,19.94,19.94,0,0,0-.36-3.26,1.82,1.82,0,1,0-3.62.36c0.18,1.09.18,2.17,0.36,3.26A1.79,1.79,0,0,0,4231.83,641.85ZM4158,538.71c0.9,0.36,2,.9,2.9,1.27a1.09,1.09,0,0,0,.72.18,1.74,1.74,0,0,0,1.63-1.09,1.8,1.8,0,0,0-.9-2.35c-1.09-.54-2-0.9-3.08-1.45a1.8,1.8,0,0,0-2.35.9A2.21,2.21,0,0,0,4158,538.71Zm74.18,106a1.81,1.81,0,0,0-1.81,1.81v3.26a1.81,1.81,0,1,0,3.62,0v-3.44A1.94,1.94,0,0,0,4232.19,644.74Zm-1.27-12.85a1.79,1.79,0,0,0,1.45-2l-0.54-3.26a1.85,1.85,0,0,0-3.62.72l0.54,3.26a1.76,1.76,0,0,0,1.81,1.45A0.36,0.36,0,0,1,4230.93,631.89ZM4124,525.69c-1.09-.18-2.17-0.18-3.26-0.36a1.82,1.82,0,0,0-.36,3.62c1.09,0.18,2.17.18,3.26,0.36h0.18a1.92,1.92,0,0,0,1.81-1.63A2.12,2.12,0,0,0,4124,525.69Zm25,9.41c1.09,0.36,2,.72,3.08,1.09a4.1,4.1,0,0,0,.72.18,1.58,1.58,0,0,0,1.63-1.09,1.88,1.88,0,0,0-1.09-2.35c-1.09-.36-2.17-0.72-3.08-1.09a1.88,1.88,0,0,0-2.35,1.09A1.69,1.69,0,0,0,4149,535.09Zm-35.1-10.31h-3.44a1.81,1.81,0,0,0,0,3.62h3.26a1.81,1.81,0,0,0,1.81-1.81A1.64,1.64,0,0,0,4113.86,524.78Z" transform="translate(0.5 0.5)"/><path class="cls-21" d="M4262,507.23l-6.15-2.17a1.83,1.83,0,1,1,1.27-3.44h0.18a1.76,1.76,0,0,1,1.45-1.81,2,2,0,0,1,2.17,1.45Zm-11.76-4.16a0.66,0.66,0,0,1-.54-0.18l-3.08-1.09a1.83,1.83,0,1,1,1.27-3.44l3.08,1.09a1.88,1.88,0,0,1,1.09,2.35A2.18,2.18,0,0,1,4250.29,503.07Zm-9.41-3.44a0.66,0.66,0,0,1-.54-0.18l-3.08-1.09a1.83,1.83,0,1,1,1.27-3.44l3.08,1.09A1.87,1.87,0,0,1,4240.88,499.63Zm17-2.71a1.76,1.76,0,0,1-1.81-1.45l-0.54-3.26a1.85,1.85,0,1,1,3.62-.72l0.54,3.26a2,2,0,0,1-1.45,2.17h-0.36Zm-26.42-.54a0.66,0.66,0,0,1-.54-0.18l-3.08-1.09a1.83,1.83,0,1,1,1.27-3.44l3.08,1.09a1.88,1.88,0,0,1,1.09,2.35A2,2,0,0,1,4231.47,496.37Zm-9.23-3.44a0.66,0.66,0,0,1-.54-0.18l-3.08-1.09a1.83,1.83,0,1,1,1.27-3.44l3.08,1.09A1.87,1.87,0,0,1,4222.24,492.94Zm-5.43-4a1.65,1.65,0,0,1-1.45-.72,1.75,1.75,0,0,1,.18-2.53l2.53-2.17a1.8,1.8,0,1,1,2.35,2.71l-2.53,2.17A1.09,1.09,0,0,1,4216.81,489Zm39.26-1.81a1.76,1.76,0,0,1-1.81-1.45l-0.54-3.26a1.85,1.85,0,1,1,3.62-.72l0.54,3.26a2,2,0,0,1-1.45,2.17h-0.36Zm-31.66-4.7a1.65,1.65,0,0,1-1.45-.72,1.75,1.75,0,0,1,.18-2.53l2.53-2.17a1.8,1.8,0,1,1,2.35,2.71l-2.53,2.17A1,1,0,0,1,4224.41,482.44Zm29.85-5.07a1.76,1.76,0,0,1-1.81-1.45l-0.54-3.26a1.85,1.85,0,0,1,3.62-.72l0.54,3.26a2,2,0,0,1-1.45,2.17h-0.36ZM4232,476.11a1.65,1.65,0,0,1-1.45-.72,1.75,1.75,0,0,1,.18-2.53l2.53-2.17a1.8,1.8,0,1,1,2.35,2.71l-2.53,2.17A1.56,1.56,0,0,1,4232,476.11Zm7.6-6.51a1.65,1.65,0,0,1-1.45-.72,1.75,1.75,0,0,1,.18-2.53l2.53-2.17a1.8,1.8,0,1,1,2.35,2.71l-2.53,2.17A1.56,1.56,0,0,1,4239.61,469.59Zm12.85-2a1.76,1.76,0,0,1-1.81-1.45l-0.54-3.26a1.85,1.85,0,0,1,3.62-.72l0.54,3.26a2,2,0,0,1-1.45,2.17h-0.36Zm-5.43-4.52a1.65,1.65,0,0,1-1.45-.72,1.75,1.75,0,0,1,.18-2.53l2.53-2.17a1.8,1.8,0,1,1,2.35,2.71l-2.53,2.17A0.88,0.88,0,0,1,4247,463.08Z" transform="translate(0.5 0.5)"/><path class="cls-21" d="M4186.23,716.21l-12.67,8.5a2.57,2.57,0,0,1-1.09.36,2.23,2.23,0,0,1-1.45-.72,1.78,1.78,0,0,1,.54-2.53l5.79-4h-59.89V652.7l-3.8,5.61a1.65,1.65,0,0,1-1.45.72,2.57,2.57,0,0,1-1.09-.36,1.78,1.78,0,0,1-.54-2.53l8.5-12.67,8.87,12.67a1.81,1.81,0,1,1-2.89,2.17l-4.16-5.79v21h1.63a1.81,1.81,0,0,1,0,3.62h-1.63v34.2l29.85-34.2h-1.45a1.81,1.81,0,0,1,0-3.62h3.26a1.81,1.81,0,0,1,1.81,1.81c0.18,0,.18.18,0.36,0.18a1.76,1.76,0,0,1,.18,2.53l-1.09,1.27a1.76,1.76,0,0,1,1.45,1.81v3.26a1.81,1.81,0,1,1-3.62,0v-2.71l-28.41,32.75h28.59V711a1.81,1.81,0,1,1,3.62,0v3.44h21.71l-5.61-4a1.81,1.81,0,0,1,2.17-2.89Zm-46.86-39.26h3.26a1.81,1.81,0,0,0,0-3.62h-3.26A1.81,1.81,0,1,0,4139.37,676.95Zm-11.76-1.81a1.71,1.71,0,0,0,1.81,1.81h3.26a1.81,1.81,0,0,0,0-3.62h-3.26A1.71,1.71,0,0,0,4127.61,675.14Zm27.68,15.56a1.81,1.81,0,1,0-3.62,0V694a1.81,1.81,0,1,0,3.62,0V690.7Zm-1.81,8.14a1.71,1.71,0,0,0-1.81,1.81v3.26a1.81,1.81,0,1,0,3.62,0v-3.26A1.71,1.71,0,0,0,4153.49,698.84Z" transform="translate(0.5 0.5)"/><path class="cls-2" d="M4237.32,255.64h-170.9a1.9,1.9,0,0,1,0-3.8h170.9a1.9,1.9,0,0,1,1.9,1.9A2,2,0,0,1,4237.32,255.64Z" transform="translate(0.5 0.5)"/><path class="cls-2" d="M4259.28,216.69h-170.9a1.9,1.9,0,0,1,0-3.8h170.9a1.9,1.9,0,0,1,1.9,1.9A2,2,0,0,1,4259.28,216.69Z" transform="translate(0.5 0.5)"/><path class="cls-2" d="M4363.2,937.77H4131.8c-1.35,0-2.57-.8-2.57-1.9s1.08-1.9,2.57-1.9h231.4c1.35,0,2.57.8,2.57,1.9A2.41,2.41,0,0,1,4363.2,937.77Z" transform="translate(0.5 0.5)"/><path class="cls-2" d="M4324,973.23h-170.9a1.9,1.9,0,0,1,0-3.8H4324a1.9,1.9,0,0,1,1.9,1.9A2,2,0,0,1,4324,973.23Z" transform="translate(0.5 0.5)"/><path class="cls-2" d="M4302,1019.48h-170.9a1.9,1.9,0,0,1,0-3.8H4302a1.9,1.9,0,0,1,1.9,1.9A2,2,0,0,1,4302,1019.48Z" transform="translate(0.5 0.5)"/><path class="cls-24" d="M4154.31,1312.15a1.4,1.4,0,0,1-.9-0.3l-44.2-25.5a1.8,1.8,0,0,1-.9-1.6v-51a1.89,1.89,0,0,1,.9-1.6l44.2-25.5a2.12,2.12,0,0,1,1.9,0l44.2,25.5a1.8,1.8,0,0,1,.9,1.6v51a1.89,1.89,0,0,1-.9,1.6l-44.2,25.5A1.69,1.69,0,0,1,4154.31,1312.15Zm-42.3-28.5,42.3,24.4,42.3-24.4v-48.8l-42.3-24.5-42.3,24.4v48.9Z" transform="translate(0.5 0.5)"/><path class="cls-24" d="M4258.41,1312.15a1.4,1.4,0,0,1-.9-0.3l-44.2-25.5a1.8,1.8,0,0,1-.9-1.6v-51a1.89,1.89,0,0,1,.9-1.6l44.2-25.5a2.12,2.12,0,0,1,1.9,0l44.2,25.5a1.8,1.8,0,0,1,.9,1.6v51a1.89,1.89,0,0,1-.9,1.6l-44.2,25.5A1.93,1.93,0,0,1,4258.41,1312.15Zm-42.3-28.5,42.3,24.4,42.3-24.4v-48.8l-42.3-24.4-42.3,24.4v48.8Z" transform="translate(0.5 0.5)"/><path class="cls-24" d="M4206,1220.35a1.4,1.4,0,0,1-.9-0.3l-44.2-25.5a1.8,1.8,0,0,1-.9-1.6v-51a1.89,1.89,0,0,1,.9-1.6l44.2-25.5a2.12,2.12,0,0,1,1.9,0l44.2,25.5a1.8,1.8,0,0,1,.9,1.6v51a1.89,1.89,0,0,1-.9,1.6l-44.2,25.5A2.24,2.24,0,0,1,4206,1220.35Zm-42.3-28.5,42.3,24.4,42.3-24.4v-48.8l-42.3-24.4-42.3,24.4v48.8h0Z" transform="translate(0.5 0.5)"/><path class="cls-24" d="M4154.31,1297.15a2.92,2.92,0,0,1-.9-0.2h0l-18.5-10.6a1.8,1.8,0,0,1-.9-1.6,1.61,1.61,0,0,1,.3-0.9,1.93,1.93,0,0,1,2.6-.7l17.6,10.1,17.6-10.1a2,2,0,0,1,2.6.7,1.93,1.93,0,0,1-.7,2.6l-18.5,10.6a0.37,0.37,0,0,1-.3.1c-0.1,0-.2.1-0.3,0.1h0A1.76,1.76,0,0,0,4154.31,1297.15Z" transform="translate(0.5 0.5)"/><path class="cls-24" d="M4291.41,1275.35a1.9,1.9,0,0,1-1.9-1.9V1245a1.9,1.9,0,0,1,3.8,0v28.5A1.9,1.9,0,0,1,4291.41,1275.35Z" transform="translate(0.5 0.5)"/></svg>